<mxfile host="app.diagrams.net" modified="2023-11-20T13:52:32.941Z" agent="Mozilla/5.0 (Windows NT 10.0; Win64; x64) AppleWebKit/537.36 (KHTML, like Gecko) Chrome/119.0.0.0 Safari/537.36" etag="TjP12QaWM6JkcAp4Rr9U" version="22.1.3" type="github">
  <diagram id="C5RBs43oDa-KdzZeNtuy" name="Page-1">
    <mxGraphModel dx="1050" dy="630" grid="1" gridSize="10" guides="1" tooltips="1" connect="1" arrows="1" fold="1" page="1" pageScale="1" pageWidth="827" pageHeight="1169" math="0" shadow="0">
      <root>
        <mxCell id="WIyWlLk6GJQsqaUBKTNV-0" />
        <mxCell id="WIyWlLk6GJQsqaUBKTNV-1" parent="WIyWlLk6GJQsqaUBKTNV-0" />
        <mxCell id="WIyWlLk6GJQsqaUBKTNV-2" value="" style="rounded=0;html=1;jettySize=auto;orthogonalLoop=1;fontSize=11;endArrow=block;endFill=0;endSize=8;strokeWidth=1;shadow=0;labelBackgroundColor=none;edgeStyle=orthogonalEdgeStyle;" parent="WIyWlLk6GJQsqaUBKTNV-1" source="WIyWlLk6GJQsqaUBKTNV-3" edge="1">
          <mxGeometry relative="1" as="geometry">
            <mxPoint x="220" y="170" as="targetPoint" />
          </mxGeometry>
        </mxCell>
        <mxCell id="WIyWlLk6GJQsqaUBKTNV-3" value="55. Decide Nest State&lt;br&gt;: 다음 수행될 State 결정" style="rounded=1;whiteSpace=wrap;html=1;fontSize=12;glass=0;strokeWidth=1;shadow=0;" parent="WIyWlLk6GJQsqaUBKTNV-1" vertex="1">
          <mxGeometry x="150" y="62" width="140" height="50" as="geometry" />
        </mxCell>
        <mxCell id="wkHYzA1NLKNPRpqWzkWh-4" value="" style="edgeStyle=orthogonalEdgeStyle;rounded=0;orthogonalLoop=1;jettySize=auto;html=1;" edge="1" parent="WIyWlLk6GJQsqaUBKTNV-1" source="wkHYzA1NLKNPRpqWzkWh-2" target="WIyWlLk6GJQsqaUBKTNV-3">
          <mxGeometry relative="1" as="geometry" />
        </mxCell>
        <mxCell id="wkHYzA1NLKNPRpqWzkWh-5" style="edgeStyle=orthogonalEdgeStyle;rounded=0;orthogonalLoop=1;jettySize=auto;html=1;" edge="1" parent="WIyWlLk6GJQsqaUBKTNV-1" source="wkHYzA1NLKNPRpqWzkWh-2" target="wkHYzA1NLKNPRpqWzkWh-3">
          <mxGeometry relative="1" as="geometry" />
        </mxCell>
        <mxCell id="wkHYzA1NLKNPRpqWzkWh-2" value="brnchDcsnSTR = &quot;00&quot;" style="rhombus;whiteSpace=wrap;html=1;" vertex="1" parent="WIyWlLk6GJQsqaUBKTNV-1">
          <mxGeometry x="145" y="170" width="150" height="70" as="geometry" />
        </mxCell>
        <mxCell id="wkHYzA1NLKNPRpqWzkWh-10" style="edgeStyle=orthogonalEdgeStyle;rounded=0;orthogonalLoop=1;jettySize=auto;html=1;entryX=0.5;entryY=0;entryDx=0;entryDy=0;" edge="1" parent="WIyWlLk6GJQsqaUBKTNV-1" source="wkHYzA1NLKNPRpqWzkWh-3">
          <mxGeometry relative="1" as="geometry">
            <mxPoint x="220" y="400" as="targetPoint" />
          </mxGeometry>
        </mxCell>
        <mxCell id="wkHYzA1NLKNPRpqWzkWh-3" value="00. Configuration&lt;br&gt;:변수 및 설정값 초기" style="rounded=1;whiteSpace=wrap;html=1;fontSize=12;glass=0;strokeWidth=1;shadow=0;" vertex="1" parent="WIyWlLk6GJQsqaUBKTNV-1">
          <mxGeometry x="150" y="294" width="140" height="50" as="geometry" />
        </mxCell>
        <mxCell id="wkHYzA1NLKNPRpqWzkWh-7" value="1. Queue Item 가져옴&lt;br&gt;- 처리대상 / 처리예외 / 부모 큐 아이템 ID&lt;br&gt;2. packDIC 변수에 위의 값들 key value의 형태로 저장&lt;br&gt;3. 처리 / 예외 / 정리 변수 초기화&lt;br&gt;4. Job 관련 정보 추출 / Local Input Json 생성" style="shape=callout;whiteSpace=wrap;html=1;perimeter=calloutPerimeter;" vertex="1" parent="WIyWlLk6GJQsqaUBKTNV-1">
          <mxGeometry x="320" y="260" width="300" height="120" as="geometry" />
        </mxCell>
        <mxCell id="wkHYzA1NLKNPRpqWzkWh-8" value="각종 변수 값들을 통해&lt;br&gt;00. configuration state code&lt;br&gt;10. pre business state code&lt;br&gt;11. business state code&lt;br&gt;70. pre Closure state code&lt;br&gt;77. closure state code&lt;br&gt;80. pre exception handle code&lt;br&gt;88. exception handle code&lt;br&gt;99. end state code&lt;br&gt;결정해&amp;nbsp; state 실행하도록 branch decision 변수 값 설정" style="shape=callout;whiteSpace=wrap;html=1;perimeter=calloutPerimeter;" vertex="1" parent="WIyWlLk6GJQsqaUBKTNV-1">
          <mxGeometry x="320" y="30" width="310" height="180" as="geometry" />
        </mxCell>
        <mxCell id="wkHYzA1NLKNPRpqWzkWh-15" value="" style="edgeStyle=orthogonalEdgeStyle;rounded=0;orthogonalLoop=1;jettySize=auto;html=1;" edge="1" parent="WIyWlLk6GJQsqaUBKTNV-1" source="wkHYzA1NLKNPRpqWzkWh-12" target="wkHYzA1NLKNPRpqWzkWh-14">
          <mxGeometry relative="1" as="geometry" />
        </mxCell>
        <mxCell id="wkHYzA1NLKNPRpqWzkWh-12" value="55. Decide Next State" style="rounded=1;whiteSpace=wrap;html=1;fontSize=12;glass=0;strokeWidth=1;shadow=0;" vertex="1" parent="WIyWlLk6GJQsqaUBKTNV-1">
          <mxGeometry x="145" y="400" width="140" height="80" as="geometry" />
        </mxCell>
        <mxCell id="wkHYzA1NLKNPRpqWzkWh-13" value="1. 수행할 biz Process가 존재한다면 11. Business 수행&lt;br&gt;2. biz Process가 미존재시 77. Closure 수행&lt;br&gt;" style="shape=callout;whiteSpace=wrap;html=1;perimeter=calloutPerimeter;" vertex="1" parent="WIyWlLk6GJQsqaUBKTNV-1">
          <mxGeometry x="320" y="395" width="300" height="120" as="geometry" />
        </mxCell>
        <mxCell id="wkHYzA1NLKNPRpqWzkWh-26" style="edgeStyle=orthogonalEdgeStyle;rounded=0;orthogonalLoop=1;jettySize=auto;html=1;entryX=0.5;entryY=0;entryDx=0;entryDy=0;" edge="1" parent="WIyWlLk6GJQsqaUBKTNV-1" source="wkHYzA1NLKNPRpqWzkWh-14" target="wkHYzA1NLKNPRpqWzkWh-21">
          <mxGeometry relative="1" as="geometry" />
        </mxCell>
        <mxCell id="wkHYzA1NLKNPRpqWzkWh-14" value="11. Business" style="whiteSpace=wrap;html=1;rounded=1;glass=0;strokeWidth=1;shadow=0;" vertex="1" parent="WIyWlLk6GJQsqaUBKTNV-1">
          <mxGeometry x="155" y="526" width="120" height="60" as="geometry" />
        </mxCell>
        <mxCell id="wkHYzA1NLKNPRpqWzkWh-16" value="CustomWorkflow (CP) 수행" style="shape=callout;whiteSpace=wrap;html=1;perimeter=calloutPerimeter;" vertex="1" parent="WIyWlLk6GJQsqaUBKTNV-1">
          <mxGeometry x="365" y="528" width="210" height="70" as="geometry" />
        </mxCell>
        <mxCell id="wkHYzA1NLKNPRpqWzkWh-18" style="edgeStyle=orthogonalEdgeStyle;rounded=0;orthogonalLoop=1;jettySize=auto;html=1;" edge="1" parent="WIyWlLk6GJQsqaUBKTNV-1" source="wkHYzA1NLKNPRpqWzkWh-14">
          <mxGeometry relative="1" as="geometry">
            <mxPoint x="140" y="430" as="targetPoint" />
            <Array as="points">
              <mxPoint x="100" y="556" />
              <mxPoint x="100" y="430" />
            </Array>
          </mxGeometry>
        </mxCell>
        <mxCell id="wkHYzA1NLKNPRpqWzkWh-19" value="수행 Biz Process&lt;br&gt;수만큼 반복" style="ellipse;whiteSpace=wrap;html=1;" vertex="1" parent="WIyWlLk6GJQsqaUBKTNV-1">
          <mxGeometry x="10" y="448" width="120" height="80" as="geometry" />
        </mxCell>
        <mxCell id="wkHYzA1NLKNPRpqWzkWh-29" value="" style="edgeStyle=orthogonalEdgeStyle;rounded=0;orthogonalLoop=1;jettySize=auto;html=1;" edge="1" parent="WIyWlLk6GJQsqaUBKTNV-1" source="wkHYzA1NLKNPRpqWzkWh-21" target="wkHYzA1NLKNPRpqWzkWh-28">
          <mxGeometry relative="1" as="geometry" />
        </mxCell>
        <mxCell id="wkHYzA1NLKNPRpqWzkWh-21" value="70. Pre Closure 수행" style="whiteSpace=wrap;html=1;rounded=1;glass=0;strokeWidth=1;shadow=0;" vertex="1" parent="WIyWlLk6GJQsqaUBKTNV-1">
          <mxGeometry x="155" y="640" width="120" height="60" as="geometry" />
        </mxCell>
        <mxCell id="wkHYzA1NLKNPRpqWzkWh-27" value="기본 또는 재정의된 완료 메일 발송&lt;br&gt;프로세스 정리 작업 전 사용자 비즈니스 로직 실행" style="shape=callout;whiteSpace=wrap;html=1;perimeter=calloutPerimeter;" vertex="1" parent="WIyWlLk6GJQsqaUBKTNV-1">
          <mxGeometry x="365" y="615" width="210" height="110" as="geometry" />
        </mxCell>
        <mxCell id="wkHYzA1NLKNPRpqWzkWh-32" value="" style="edgeStyle=orthogonalEdgeStyle;rounded=0;orthogonalLoop=1;jettySize=auto;html=1;" edge="1" parent="WIyWlLk6GJQsqaUBKTNV-1" source="wkHYzA1NLKNPRpqWzkWh-28" target="wkHYzA1NLKNPRpqWzkWh-31">
          <mxGeometry relative="1" as="geometry" />
        </mxCell>
        <mxCell id="wkHYzA1NLKNPRpqWzkWh-28" value="77. Closure 수행" style="whiteSpace=wrap;html=1;rounded=1;glass=0;strokeWidth=1;shadow=0;" vertex="1" parent="WIyWlLk6GJQsqaUBKTNV-1">
          <mxGeometry x="155" y="746" width="120" height="60" as="geometry" />
        </mxCell>
        <mxCell id="wkHYzA1NLKNPRpqWzkWh-30" value="프로세스 종료 전 정리 작업(작업 폴더 백업, 작업 폴더 삭제, 처리 대상 Qeueue Item 성공 처리)" style="shape=callout;whiteSpace=wrap;html=1;perimeter=calloutPerimeter;" vertex="1" parent="WIyWlLk6GJQsqaUBKTNV-1">
          <mxGeometry x="365" y="731" width="210" height="110" as="geometry" />
        </mxCell>
        <mxCell id="wkHYzA1NLKNPRpqWzkWh-35" value="" style="edgeStyle=orthogonalEdgeStyle;rounded=0;orthogonalLoop=1;jettySize=auto;html=1;" edge="1" parent="WIyWlLk6GJQsqaUBKTNV-1" source="wkHYzA1NLKNPRpqWzkWh-31" target="wkHYzA1NLKNPRpqWzkWh-34">
          <mxGeometry relative="1" as="geometry" />
        </mxCell>
        <mxCell id="wkHYzA1NLKNPRpqWzkWh-31" value="55. Decide Next State" style="whiteSpace=wrap;html=1;rounded=1;glass=0;strokeWidth=1;shadow=0;" vertex="1" parent="WIyWlLk6GJQsqaUBKTNV-1">
          <mxGeometry x="155" y="846" width="120" height="60" as="geometry" />
        </mxCell>
        <mxCell id="wkHYzA1NLKNPRpqWzkWh-33" value="End로 이동" style="shape=callout;whiteSpace=wrap;html=1;perimeter=calloutPerimeter;" vertex="1" parent="WIyWlLk6GJQsqaUBKTNV-1">
          <mxGeometry x="392.5" y="860" width="155" height="70" as="geometry" />
        </mxCell>
        <mxCell id="wkHYzA1NLKNPRpqWzkWh-34" value="End" style="whiteSpace=wrap;html=1;rounded=1;glass=0;strokeWidth=1;shadow=0;" vertex="1" parent="WIyWlLk6GJQsqaUBKTNV-1">
          <mxGeometry x="155" y="943" width="120" height="60" as="geometry" />
        </mxCell>
      </root>
    </mxGraphModel>
  </diagram>
</mxfile>
